<svg id="Capa_1" data-name="Capa 1" xmlns="http://www.w3.org/2000/svg" viewBox="0 0 489.24 224.58"><defs><style>.cls-1{fill:#3ca2a2;}.cls-2,.cls-3{fill:#215a6d;}.cls-3{font-size:87px;font-family:Candara;}</style></defs><path class="cls-1" d="M56.62,98.44C61.69,101.53,67,105,72.37,108.85c7.63,5.45,14.45,10.93,20.48,16.22q1.44,25.65,2.11,52.47.3,12.35.41,24.43c1.79-.15,33.45-3.18,38.92-21,2.85-9.3-2.29-19.7-15.88-35.47C103,127.64,75.22,101,27,78.16c99.18,25.32,153.08,83,145,118.41-6.58,29-56.15,49.25-113.37,54Z" transform="translate(-26.99 -25.97)"/><path class="cls-2" d="M56.86,26c.69.83,9.62,11.2,23,9.6A25.94,25.94,0,0,0,96,26.93Q94.64,45.25,94.11,65.2q-.44,18.36-.06,35.39c-5.12-2.85-10.86-5.75-17.21-8.51A192.76,192.76,0,0,0,57.4,84.82q0-9.84,0-19.8Q57.31,45.25,56.86,26Z" transform="translate(-26.99 -25.97)"/><text class="cls-3" transform="translate(156.7 173.08)">BIODESK</text></svg>